ISO-10303-21;
HEADER;
FILE_DESCRIPTION(('ViewDefinition [CoordinationView_V2.0]','RevitIdentifiers [ContentGUID: 5c39d785-2693-450f-944d-e3855c2b7758, VersionGUID: 35e7677f-94c1-4c89-b01f-0d98e8a9e938, NumberOfSaves: 0]','CoordinateReference [CoordinateBase: Shared Coordinates, ProjectSite: Default Site]'),'2;1');
FILE_NAME('Project1.ifc','2026-02-17T13:04:41+01:00',(''),(''),'ODA SDAI 25.12','Autodesk Revit 26.1.0.35 (ENU) - IFC 26.1.0.35','');
FILE_SCHEMA(('IFC2X3'));
ENDSEC;

DATA;
#1=IFCORGANIZATION($,'Autodesk Revit 2026 (ENU)',$,$,$);
#2=IFCAPPLICATION(#1,'2026','Autodesk Revit 2026 (ENU)','Revit');
#3=IFCCARTESIANPOINT((0.,0.,0.));
#4=IFCCARTESIANPOINT((0.,0.));
#5=IFCDIRECTION((1.,0.,0.));
#6=IFCDIRECTION((-1.,0.,0.));
#7=IFCDIRECTION((0.,1.,0.));
#8=IFCDIRECTION((0.,-1.,0.));
#9=IFCDIRECTION((0.,0.,1.));
#10=IFCDIRECTION((0.,0.,-1.));
#11=IFCDIRECTION((1.,0.));
#12=IFCDIRECTION((-1.,0.));
#13=IFCDIRECTION((0.,1.));
#14=IFCDIRECTION((0.,-1.));
#15=IFCPERSON($,'','stni25xr',$,$,$,$,$);
#16=IFCORGANIZATION($,'Organization Name','Organization Description',$,$);
#17=IFCPERSONANDORGANIZATION(#15,#16,$);
#18=IFCOWNERHISTORY(#17,#2,$,.NOCHANGE.,$,$,$,1771329881);
#19=IFCSIUNIT(*,.LENGTHUNIT.,$,.METRE.);
#20=IFCSIUNIT(*,.AREAUNIT.,$,.SQUARE_METRE.);
#21=IFCSIUNIT(*,.VOLUMEUNIT.,$,.CUBIC_METRE.);
#22=IFCAXIS2PLACEMENT3D(#3,$,$);
#23=IFCDIRECTION((6.123233995736766E-017,1.));
#24=IFCGEOMETRICREPRESENTATIONCONTEXT($,'Model',3,1.0000000000000001E-005,#22,#23);
#25=IFCGEOMETRICREPRESENTATIONSUBCONTEXT('Axis','Model',*,*,*,*,#24,$,.GRAPH_VIEW.,$);
#26=IFCGEOMETRICREPRESENTATIONSUBCONTEXT('Body','Model',*,*,*,*,#24,$,.MODEL_VIEW.,$);
#27=IFCGEOMETRICREPRESENTATIONSUBCONTEXT('Box','Model',*,*,*,*,#24,$,.MODEL_VIEW.,$);
#28=IFCGEOMETRICREPRESENTATIONSUBCONTEXT('FootPrint','Model',*,*,*,*,#24,$,.MODEL_VIEW.,$);
#29=IFCPROJECT('1SETU59fD53vHDuuMZr8Ye',#18,'Project Number',$,$,'Project Name','Project Status',(#24),#207);
#30=IFCCLASSIFICATION('CSI (Construction Specifications Institute)','1998',$,'Uniformat');
#31=IFCAXIS2PLACEMENT3D(#3,$,$);
#32=IFCLOCALPLACEMENT(#43,#31);
#33=IFCPOSTALADDRESS($,$,$,$,('Enter address here\X\0D\X\0AAddress Line 2'),$,'','Boston','','MA');
#34=IFCBUILDING('1SETU59fD53vHDuuMZr8Yf',#18,'Building Name',$,$,#32,$,'Building Name',.ELEMENT.,$,$,#33);
#35=IFCAXIS2PLACEMENT3D(#3,$,$);
#36=IFCLOCALPLACEMENT(#32,#35);
#37=IFCBUILDINGSTOREY('2JF4e6axWHqu3u0C1FZlmi',#18,'L1',$,'Level:8mm Head',#36,$,'L1',.ELEMENT.,0.);
#38=IFCCARTESIANPOINT((0.,0.,3.6000000000000001));
#39=IFCAXIS2PLACEMENT3D(#38,$,$);
#40=IFCLOCALPLACEMENT(#32,#39);
#41=IFCBUILDINGSTOREY('1ZGO8hrFCHqw0v0026FpFv',#18,'L2',$,'Level:8mm Head',#40,$,'L2',.ELEMENT.,3.6000000000000001);
#42=IFCAXIS2PLACEMENT3D(#3,$,$);
#43=IFCLOCALPLACEMENT($,#42);
#44=IFCSITE('1SETU59fD53vHDuuMZr8Yg',#18,'Default',$,$,#43,$,$,.ELEMENT.,(42,21,31,401672),(-71,-3,-24,-345703),0.,$,$);
#45=IFCCARTESIANPOINT((456210.16660614061,6403279.6697645495,0.));
#46=IFCDIRECTION((0.52991926423280777,-0.84804809615667431,0.));
#47=IFCAXIS2PLACEMENT3D(#45,#9,#46);
#48=IFCLOCALPLACEMENT(#36,#47);
#49=IFCCARTESIANPOINT((22.402994140130282,0.));
#50=IFCPOLYLINE((#4,#49));
#51=IFCSHAPEREPRESENTATION(#25,'Axis','Curve2D',(#50));
#52=IFCPRODUCTDEFINITIONSHAPE($,$,(#51,#68));
#53=IFCCARTESIANPOINT((22.402994140368946,-0.099999999251198471));
#54=IFCCARTESIANPOINT((22.40299414049689,0.10000000063085783));
#55=IFCCARTESIANPOINT((0.0059012343611467124,0.10000000049571539));
#56=IFCCARTESIANPOINT((-0.,-0.09999999945962447));
#57=IFCCARTESIANPOINT((0.20008704124486568,-0.099999999398439093));
#58=IFCCARTESIANPOINT((22.20299414056965,-0.099999999258652925));
#59=IFCPOLYLINE((#53,#54,#55,#56,#57,#58,#53));
#60=IFCARBITRARYCLOSEDPROFILEDEF(.AREA.,$,#59);
#61=IFCAXIS2PLACEMENT3D(#3,$,$);
#62=IFCEXTRUDEDAREASOLID(#60,#61,#9,6.0000000000000009);
#63=IFCCOLOURRGB($,0.75294117647058822,0.75294117647058822,0.75294117647058822);
#64=IFCSURFACESTYLERENDERING(#63,0.,$,$,$,$,IFCNORMALISEDRATIOMEASURE(0.5),IFCSPECULAREXPONENT(10.),.NOTDEFINED.);
#65=IFCSURFACESTYLE('Default Wall',.BOTH.,(#64));
#66=IFCPRESENTATIONSTYLEASSIGNMENT((#65));
#67=IFCSTYLEDITEM(#62,(#66),$);
#68=IFCSHAPEREPRESENTATION(#26,'Body','SweptSolid',(#62));
#69=IFCWALLSTANDARDCASE('0rvsT$bC5CYR0V3PZei8$2',#18,'Basic Wall:Generic - 200mm:1664762',$,'Basic Wall:Generic - 200mm',#48,#52,'1664762');
#70=IFCMATERIAL('Default Wall');
#71=IFCPRESENTATIONSTYLEASSIGNMENT((#65));
#72=IFCSTYLEDITEM($,(#71),$);
#73=IFCSTYLEDREPRESENTATION(#24,'Style','Material',(#72));
#74=IFCMATERIALDEFINITIONREPRESENTATION($,$,(#73),#70);
#75=IFCMATERIALLAYER(#70,0.20000000000000001,$);
#76=IFCMATERIALLAYERSET((#75),'Basic Wall:Generic - 200mm');
#77=IFCMATERIALLAYERSETUSAGE(#76,.AXIS2.,.NEGATIVE.,0.10000000000000001);
#78=IFCWALLTYPE('1xZrMVYp52mhf4uMzw11Hk',#18,'Basic Wall:Generic - 200mm',$,$,(#91),$,'441451',$,.STANDARD.);
#79=IFCPROPERTYSINGLEVALUE('Reference',$,IFCIDENTIFIER('Generic - 200mm'),$);
#80=IFCPROPERTYSET('2NqSyuaUDR1Bar_EgmPafc',#18,'Pset_QuantityTakeOff',$,(#79));
#81=IFCPROPERTYSINGLEVALUE('Reference',$,IFCLABEL('Generic - 200mm'),$);
#82=IFCPROPERTYSET('3wdukumTmgxjCkwdbT$Lb7',#18,'Pset_ReinforcementBarPitchOfWall',$,(#81));
#83=IFCPROPERTYSINGLEVALUE('IsExternal',$,IFCBOOLEAN(.T.),$);
#84=IFCPROPERTYSINGLEVALUE('ExtendToStructure',$,IFCBOOLEAN(.F.),$);
#85=IFCPROPERTYSINGLEVALUE('LoadBearing',$,IFCBOOLEAN(.F.),$);
#86=IFCPROPERTYSET('1Q0VpL6t45eYl8q4SSf6Ya',#18,'Pset_WallCommon',$,(#79,#83,#84,#85));
#87=IFCRELDEFINESBYPROPERTIES('1M1bIvFYhHJi9WFu7OUAfL',#18,$,$,(#69),#80);
#88=IFCRELDEFINESBYPROPERTIES('3ypSLggMhgIwnXXoCxHIFf',#18,$,$,(#69),#82);
#89=IFCRELDEFINESBYPROPERTIES('0qNoWcFtAzr6U_eo_d2AXf',#18,$,$,(#69),#86);
#90=IFCPROPERTYSINGLEVALUE('Description',$,IFCTEXT('Generic Wall (Material By Category), 200mm thick'),$);
#91=IFCPROPERTYSET('2L7lvTstnIeeydfwzfZZLR',#18,'Pset_ReinforcementBarPitchOfWall',$,(#90));
#92=IFCCARTESIANPOINT((456221.90058757726,6403260.7027609041,0.));
#93=IFCDIRECTION((-0.84804809614830268,-0.52991926424620506,0.));
#94=IFCAXIS2PLACEMENT3D(#92,#9,#93);
#95=IFCLOCALPLACEMENT(#36,#94);
#96=IFCCARTESIANPOINT((13.556484383502603,0.));
#97=IFCPOLYLINE((#4,#96));
#98=IFCSHAPEREPRESENTATION(#25,'Axis','Curve2D',(#97));
#99=IFCPRODUCTDEFINITIONSHAPE($,$,(#98,#106));
#100=IFCCARTESIANPOINT((6.778242191725119,1.806122057468329E-010));
#101=IFCAXIS2PLACEMENT2D(#100,#12);
#102=IFCRECTANGLEPROFILEDEF(.AREA.,$,#101,13.556484383450238,0.19999999983690073);
#103=IFCAXIS2PLACEMENT3D(#3,$,$);
#104=IFCEXTRUDEDAREASOLID(#102,#103,#9,6.0000000000000009);
#105=IFCSTYLEDITEM(#104,(#66),$);
#106=IFCSHAPEREPRESENTATION(#26,'Body','SweptSolid',(#104));
#107=IFCWALLSTANDARDCASE('0rvsT$bC5CYR0V3PZei8wQ',#18,'Basic Wall:Generic - 200mm:1664930',$,'Basic Wall:Generic - 200mm',#95,#99,'1664930');
#108=IFCMATERIALLAYERSETUSAGE(#76,.AXIS2.,.NEGATIVE.,0.10000000000000001);
#109=IFCPROPERTYSET('1_iK7ak2l2qh2QEisJA4gm',#18,'Pset_QuantityTakeOff',$,(#79));
#110=IFCPROPERTYSINGLEVALUE('Reference',$,IFCLABEL('Generic - 200mm'),$);
#111=IFCPROPERTYSET('1NQgup_Cf4oIxY$5iu_q8Y',#18,'Pset_ReinforcementBarPitchOfWall',$,(#110));
#112=IFCPROPERTYSET('2f8NNwIl$I4$CB1dbAAvPi',#18,'Pset_WallCommon',$,(#79,#83,#84,#85));
#113=IFCRELDEFINESBYPROPERTIES('1dSkpMUwN5ZnmE3rMaW$k4',#18,$,$,(#107),#109);
#114=IFCRELDEFINESBYPROPERTIES('3gZ3d9MSJNyF5xHty0fLjX',#18,$,$,(#107),#111);
#115=IFCRELDEFINESBYPROPERTIES('1Kc4B8vn6ge0_WPypbpXxk',#18,$,$,(#107),#112);
#116=IFCCARTESIANPOINT((456210.43584968959,6403253.6567154098,0.));
#117=IFCDIRECTION((-0.52991926422761337,0.84804809615991994,0.));
#118=IFCAXIS2PLACEMENT3D(#116,#9,#117);
#119=IFCLOCALPLACEMENT(#36,#118);
#120=IFCCARTESIANPOINT((22.602994139385224,0.));
#121=IFCPOLYLINE((#4,#120));
#122=IFCSHAPEREPRESENTATION(#25,'Axis','Curve2D',(#121));
#123=IFCPRODUCTDEFINITIONSHAPE($,$,(#122,#134));
#124=IFCCARTESIANPOINT((22.597092904051209,-0.09999999935929893));
#125=IFCCARTESIANPOINT((22.602994138806142,0.10000000053589471));
#126=IFCCARTESIANPOINT((-0.,0.10000000054279704));
#127=IFCCARTESIANPOINT((-0.,-0.099999999279074742));
#128=IFCCARTESIANPOINT((22.397005862336119,-0.099999999481894655));
#129=IFCPOLYLINE((#124,#125,#126,#127,#128,#124));
#130=IFCARBITRARYCLOSEDPROFILEDEF(.AREA.,$,#129);
#131=IFCAXIS2PLACEMENT3D(#3,$,$);
#132=IFCEXTRUDEDAREASOLID(#130,#131,#9,6.0000000000000009);
#133=IFCSTYLEDITEM(#132,(#66),$);
#134=IFCSHAPEREPRESENTATION(#26,'Body','SweptSolid',(#132));
#135=IFCWALLSTANDARDCASE('0rvsT$bC5CYR0V3PZei85z',#18,'Basic Wall:Generic - 200mm:1665093',$,'Basic Wall:Generic - 200mm',#119,#123,'1665093');
#136=IFCMATERIALLAYERSETUSAGE(#76,.AXIS2.,.NEGATIVE.,0.10000000000000001);
#137=IFCPROPERTYSET('3Tyckde5i$UhpasWOhO_vH',#18,'Pset_QuantityTakeOff',$,(#79));
#138=IFCPROPERTYSINGLEVALUE('Reference',$,IFCLABEL('Generic - 200mm'),$);
#139=IFCPROPERTYSET('1mNffQwdsYcswghtReDC7y',#18,'Pset_ReinforcementBarPitchOfWall',$,(#138));
#140=IFCPROPERTYSET('3jcVWdfOamj8MGQKthi_uH',#18,'Pset_WallCommon',$,(#79,#83,#84,#85));
#141=IFCRELDEFINESBYPROPERTIES('3FAxLa$$up2guijlf$V3CL',#18,$,$,(#135),#137);
#142=IFCRELDEFINESBYPROPERTIES('04hkV1kbw0HNJxfj8b25um',#18,$,$,(#135),#139);
#143=IFCRELDEFINESBYPROPERTIES('1IIwyavXeOlgDid07oiAM6',#18,$,$,(#135),#140);
#144=IFCCARTESIANPOINT((456198.59648735012,6403272.7867981251,0.));
#145=IFCDIRECTION((0.86330826404136607,0.50467696721554767,0.));
#146=IFCAXIS2PLACEMENT3D(#144,#9,#145);
#147=IFCLOCALPLACEMENT(#36,#146);
#148=IFCCARTESIANPOINT((13.368198526605964,0.));
#149=IFCPOLYLINE((#4,#148));
#150=IFCSHAPEREPRESENTATION(#25,'Axis','Curve2D',(#149));
#151=IFCPRODUCTDEFINITIONSHAPE($,$,(#150,#161));
#152=IFCCARTESIANPOINT((13.368198526345513,-0.099999998977664067));
#153=IFCCARTESIANPOINT((13.36229729099394,0.10000000041950598));
#154=IFCCARTESIANPOINT((0.,0.10000000057124808));
#155=IFCCARTESIANPOINT((0.0059012354937862813,-0.099999998861736661));
#156=IFCPOLYLINE((#152,#153,#154,#155,#152));
#157=IFCARBITRARYCLOSEDPROFILEDEF(.AREA.,$,#156);
#158=IFCAXIS2PLACEMENT3D(#3,$,$);
#159=IFCEXTRUDEDAREASOLID(#157,#158,#9,6.0000000000000009);
#160=IFCSTYLEDITEM(#159,(#66),$);
#161=IFCSHAPEREPRESENTATION(#26,'Body','SweptSolid',(#159));
#162=IFCWALLSTANDARDCASE('0rvsT$bC5CYR0V3PZei850',#18,'Basic Wall:Generic - 200mm:1665144',$,'Basic Wall:Generic - 200mm',#147,#151,'1665144');
#163=IFCMATERIALLAYERSETUSAGE(#76,.AXIS2.,.NEGATIVE.,0.10000000000000001);
#164=IFCPROPERTYSET('37I9hLFvBWiHBE1FPAQezr',#18,'Pset_QuantityTakeOff',$,(#79));
#165=IFCPROPERTYSINGLEVALUE('Reference',$,IFCLABEL('Generic - 200mm'),$);
#166=IFCPROPERTYSET('1O9XQ8fkOa7tuu7XXNIHHx',#18,'Pset_ReinforcementBarPitchOfWall',$,(#165));
#167=IFCPROPERTYSET('3kVle17esnQqMP5zg$bxJx',#18,'Pset_WallCommon',$,(#79,#83,#84,#85));
#168=IFCRELDEFINESBYPROPERTIES('2o6FzU2zgeIuO5vCIOVB6B',#18,$,$,(#162),#164);
#169=IFCRELDEFINESBYPROPERTIES('0r2$$l4H3VXC4rvK7zZAKD',#18,$,$,(#162),#166);
#170=IFCRELDEFINESBYPROPERTIES('34uSZLlIFUWgNFN2YIhyMw',#18,$,$,(#162),#167);
#171=IFCPROPERTYSINGLEVALUE('Name',$,IFCLABEL('L1'),$);
#172=IFCPROPERTYSET('2l4vqu11LCaZAypUbzwyea',#18,'Pset_AirSideSystemInformation',$,(#171));
#173=IFCPROPERTYSINGLEVALUE('AboveGround',$,IFCLOGICAL(.U.),$);
#174=IFCPROPERTYSET('16L50AfyZF4hYq5TGET4H4',#18,'Pset_BuildingStoreyCommon',$,(#173));
#175=IFCPROPERTYSINGLEVALUE('Name',$,IFCLABEL('L1'),$);
#176=IFCPROPERTYSET('0Fxv$pCHYe$d1NPq668uup',#18,'Pset_ProductRequirements',$,(#175));
#177=IFCRELDEFINESBYPROPERTIES('3NFes7CBV81H0RHVpWu5ZF',#18,$,$,(#37),#172);
#178=IFCRELDEFINESBYPROPERTIES('2VdfSfkgzGoZi_3SgzE8$0',#18,$,$,(#37),#174);
#179=IFCRELDEFINESBYPROPERTIES('0Vxl9G1EBUZpUdM$cyum7J',#18,$,$,(#37),#176);
#180=IFCRELCONTAINEDINSPATIALSTRUCTURE('2JF4e6axWHqu3u0C5FZlmi',#18,$,$,(#69,#107,#135,#162),#37);
#181=IFCPROPERTYSINGLEVALUE('Name',$,IFCLABEL('L2'),$);
#182=IFCPROPERTYSET('2rmMSkA7gc4STb1LnLF8UH',#18,'Pset_AirSideSystemInformation',$,(#181));
#183=IFCPROPERTYSET('1n34enW33Z_3Qq2Pm1kjQZ',#18,'Pset_BuildingStoreyCommon',$,(#173));
#184=IFCPROPERTYSINGLEVALUE('Name',$,IFCLABEL('L2'),$);
#185=IFCPROPERTYSET('3b2aIDv9vaOvbWU0hVWzaG',#18,'Pset_ProductRequirements',$,(#184));
#186=IFCRELDEFINESBYPROPERTIES('1kaSOYlg8iono8iflzrHRz',#18,$,$,(#41),#182);
#187=IFCRELDEFINESBYPROPERTIES('36oM8gyLQ5_Z6XoGK5uP1E',#18,$,$,(#41),#183);
#188=IFCRELDEFINESBYPROPERTIES('2r$5AllCk4VpjESRla$JzH',#18,$,$,(#41),#185);
#189=IFCRELAGGREGATES('1O68$E9SwM6HO8i5_6$CyT',#18,$,$,#29,(#44));
#190=IFCRELAGGREGATES('2rK7STK9d1eUhmy_HA6c$a',#18,$,$,#44,(#34));
#191=IFCRELAGGREGATES('1yhDISh1T5aQqAoygxGIhP',#18,$,$,#34,(#37,#41));
#192=IFCPROPERTYSINGLEVALUE('NumberOfStoreys',$,IFCINTEGER(2),$);
#193=IFCPROPERTYSINGLEVALUE('IsLandmarked',$,IFCLOGICAL(.U.),$);
#194=IFCPROPERTYSET('2V5o196FqQ$DwcwuSwCrBa',#18,'Pset_BuildingCommon',$,(#192,#193));
#195=IFCRELDEFINESBYPROPERTIES('2$s64TRIuNtyC9Q95Tc3CD',#18,$,$,(#34),#194);
#196=IFCRELASSOCIATESMATERIAL('1A3DIH_0YPjSJ$cD_U7LTc',#18,$,$,(#69),#77);
#197=IFCRELASSOCIATESMATERIAL('216Y0D1nWoumKR4nZ3tcWs',#18,$,$,(#107),#108);
#198=IFCRELASSOCIATESMATERIAL('368NCcryg7G7Re0VgjGPGu',#18,$,$,(#135),#136);
#199=IFCRELASSOCIATESMATERIAL('0yGrYbcdQn$78dvIU7xFIh',#18,$,$,(#162),#163);
#200=IFCRELASSOCIATESMATERIAL('3R9WEvCbm8ndWl1dFd4JuW',#18,$,$,(#78),#76);
#201=IFCRELDEFINESBYTYPE('0MSq_ijuC5q4PUKv4QkOsA',#18,$,$,(#69,#107,#135,#162),#78);
#202=IFCRELCONNECTSPATHELEMENTS('3Wge_A0oeiGaGz0EUB_ZYy',#18,'0rvsT$bC5CYR0V3PZei8$2|0rvsT$bC5CYR0V3PZei850','Structural',$,#69,#162,(),(),.ATEND.,.ATSTART.);
#203=IFCRELCONNECTSPATHELEMENTS('3G7zNBRK8lHQ2q3hfLJ$J_',#18,'0rvsT$bC5CYR0V3PZei8$2|0rvsT$bC5CYR0V3PZei8wQ','Structural',$,#69,#107,(),(),.ATSTART.,.ATEND.);
#204=IFCRELCONNECTSPATHELEMENTS('0Lghz6muqU$qVodC1LmECM',#18,'0rvsT$bC5CYR0V3PZei8wQ|0rvsT$bC5CYR0V3PZei85z','Structural',$,#107,#135,(),(),.ATSTART.,.ATEND.);
#205=IFCRELCONNECTSPATHELEMENTS('2LNnFcocKC0QgRErYBvzhQ',#18,'0rvsT$bC5CYR0V3PZei85z|0rvsT$bC5CYR0V3PZei850','Structural',$,#135,#162,(),(),.ATSTART.,.ATEND.);
#206=IFCPRESENTATIONLAYERASSIGNMENT('A-WALL-____-OTLN',$,(#51,#68,#98,#106,#122,#134,#150,#161),$);
#207=IFCUNITASSIGNMENT((#19,#20,#21));
ENDSEC;

END-ISO-10303-21;